<svg fill="none" height="79" viewBox="0 0 91 79" width="91" xmlns="http://www.w3.org/2000/svg"><path d="m65.2795 73.8029-.0633-.0061-56.17392-5.7831c-2.31693-.24-4.44468-1.3915-5.9199-3.2038-1.47522-1.8122-2.178442-4.1383-1.95651-6.4719l5.09799-49.52404c.23866-2.33278 1.38488-4.47689 3.18834-5.96403 1.8035-1.48715 4.1176-2.196504 6.437-1.973144l.0633.006089 56.1423 5.780125c2.3267.24382 4.4614 1.40574 5.9367 3.23126 1.475 1.82544 2.1704 4.16574 1.9335 6.50814l-5.0602 49.4634c-.2413 2.3316-1.3883 4.474-3.191 5.9606-1.8029 1.4867-4.1155 2.197-6.4343 1.9765zm-53.4041-16.211 52.6661 5.424 4.7308-45.9301-52.6547-5.4337z" fill="#fff"/><path d="m10.7951 16.4445-4.359 42.4011c-.04744.4636-.00368.932.12877 1.3784.13248.4462.35103.8619.64323 1.2229.2922.3612.65228.6609 1.05972.8818.40744.221.85425.3589 1.3149.4061l56.17378 5.7832c.463.0474.9307.0025 1.3766-.1324.4458-.1349.8609-.3568 1.2215-.6533.3606-.2964.6596-.6616.8799-1.0743.2202-.4127.3574-.8651.4037-1.3311l4.3588-42.4011z" fill="#ff7698"/><path d="m65.7643 68.7651-56.20547-5.7863c-.99654-.1016-1.91214-.5959-2.5467-1.3753-.63458-.7792-.93654-1.7798-.83992-2.7832l4.34849-42.4022c.0067-.0704.041-.1351.0952-.18.0542-.0451.1239-.0666.1938-.0598l63.2 6.5025c.0699.0068.1342.0411.1788.0956.0446.0544.0658.1246.0591.1948l-4.3589 42.4012c-.1099.9957-.6034 1.9089-1.3746 2.5432-.7711.6344-1.7584.9393-2.7498.8495zm-54.7296-52.0514-4.33549 42.1573c-.04409.4288-.00382.862.11849 1.2748.12231.413.32429.7974.59439 1.1316.27008.3343.60301.6115.97978.816.37674.2046.78993.3325 1.21598.3763l56.18455 5.7841c.8572.0827 1.7126-.1795 2.3793-.7289.6668-.5496 1.0907-1.3419 1.1793-2.2042l4.3461-42.1562z" fill="#3d3dff"/><path d="m74.7301 15.8669c.0489-.4644.0062-.9338-.1254-1.3812-.1319-.4476-.35-.8644-.6423-1.2267-.2922-.3623-.6527-.6629-1.0607-.8846-.4081-.2217-.8556-.3601-1.3173-.4074l-56.1844-5.78414c-.4606-.04717-.9261-.00257-1.3698.13125-.4438.13383-.8571.35426-1.2163.64871-.3593.29445-.6575.65714-.8776 1.0674-.2201.41023-.3578.85998-.4052 1.32356l-.6812 7.07472 63.2 6.5026z" fill="#f2f2f2"/><path d="m73.9716 23.1911-63.2-6.5026c-.0685-.0036-.1328-.0338-.1796-.0842-.0467-.0505-.0722-.1171-.071-.1861l.6812-7.0748c.0485-.50407.1962-.99351.4345-1.43978.2383-.44626.5625-.84042.9537-1.1595.3911-.31907.8414-.55666 1.3245-.69893.4831-.14226.9895-.18633 1.4895-.12968l56.2055 5.78619c.9997.1076 1.9163.6083 2.55 1.3932.6337.7848.9333 1.7902.8336 2.7972l-.6802 7.0642c-.0031.0399-.0149.0785-.0349.1131-.0198.0345-.0471.0643-.08.0868-.0328.0226-.0702.0375-.1094.0434-.0394.006-.0795.0031-.1174-.0085zm-62.8854-7.0076 62.6728 6.4518.6557-6.8097c.0855-.8562-.1654-1.7118-.6991-2.3834-.5339-.6717-1.3081-1.106-2.1567-1.2101l-56.1845-5.78421c-.4261-.04384-.8566-.0028-1.2671.12078-.4105.12357-.7929.32726-1.1253.59945s-.6084.60753-.8121.98686c-.2038.37935-.3313.79528-.3754 1.22404z" fill="#3d3dff"/><path d="m16.4459 13.4346c.9721.0936 1.8366-.6236 1.9307-1.6019.0942-.9783-.6175-1.84722-1.5896-1.94082-.9721-.09359-1.8365.62362-1.9307 1.60192s.6175 1.8472 1.5896 1.9408z" fill="#ff6777"/><path d="m16.4201 13.6997c-.532-.0645-1.0196-.3295-1.3647-.7416-.3453-.4187-.5114-.9582-.4619-1.5004.0573-.5369.3221-1.0298.7372-1.3724.4151-.34257.9472-.50732 1.4816-.45866.5328.05411 1.0226.3176 1.363.73326.3404.4156.5039.9498.455 1.4865-.0236.2691-.1014.5306-.2285.7686-.1272.2381-.3011.4477-.5111.6161-.4108.3433-.9386.5115-1.4706.4686zm.3411-3.5427c-.3944-.0373-.7878.0823-1.0959.3334-.3052.2553-.4979.6215-.5362 1.0189-.0382.3973.0811.7936.332 1.1025.1246.1531.2782.2799.4518.373s.3638.1508.5597.1697c.1959.0188.3936-.0015.5818-.0598s.3631-.1534.5147-.28c.1535-.1248.2807-.2791.3743-.4539.0935-.1748.1515-.3666.1705-.5641.0241-.1969.0072-.3965-.0496-.5863-.0569-.1898-.1524-.3655-.2804-.516-.2504-.3127-.6134-.5131-1.0101-.5576z" fill="#3d3dff"/><path d="m23.4621 14.1531c.9722.0936 1.8365-.6235 1.9307-1.6018s-.6174-1.8473-1.5896-1.9409c-.9721-.0936-1.8366.6236-1.9308 1.6019s.6176 1.8472 1.5897 1.9408z" fill="#00ffac"/><path d="m23.4753 14.454c-.2767-.0204-.5461-.0979-.7916-.2277-.2454-.1297-.4618-.3089-.6354-.5265-.1736-.2175-.3008-.4687-.3737-.7379-.073-.2693-.0902-.5508-.0503-.8271.0653-.5342.3383-1.0208.7591-1.3535.4208-.3326.9551-.4842 1.4861-.4215.5395.0519 1.0362.3174 1.3807.7381.3445.4206.5088.9619.4565 1.5049-.0523.5429-.3168 1.0429-.7352 1.3901-.4185.3472-.9567.5131-1.4962.4611zm.3431-3.5639c-.3855-.0462-.7772.0914-1.0874.3269s-.5179.5826-.5797.9685c-.0301.2047-.0177.4135.0366.613.0543.1994.1493.3853.2789.5458s.291.292.474.3863.3834.1492.5886.1613c.3951.038.7894-.0827 1.0968-.3359s.5028-.6183.5439-1.0156c.019-.1978-.0007-.3974-.0584-.5874-.0576-.1899-.152-.3666-.2774-.5198-.1256-.1533-.2798-.2801-.4542-.3733-.1742-.0932-.365-.1509-.5617-.1698z" fill="#3d3dff"/><path d="m30.4865 14.883c.9721.0936 1.8366-.6236 1.9308-1.6019.0941-.9783-.6176-1.8472-1.5897-1.9408s-1.8366.6236-1.9308 1.6019.6176 1.8472 1.5897 1.9408z" fill="#00cdff"/><g fill="#3d3dff"><path d="m30.4629 15.1268c-.2673-.0279-.5264-.1088-.7623-.2381-.2358-.1292-.4438-.3043-.612-.5151-.1679-.2061-.2934-.4437-.3693-.6991-.0757-.2554-.1004-.5235-.0725-.7886.0546-.5381.3187-1.0327.7345-1.3758.4157-.3431.9493-.5068 1.4842-.4553.5367.0516 1.0308.3158 1.3736.7342.3427.4185.506.957.454 1.4971-.052.5402-.315 1.0376-.7313 1.383-.4164.3454-.9517.5104-1.4884.4587zm.3411-3.5427c-.3951-.038-.7894.0827-1.0968.3359-.3074.2531-.5028.6182-.5439 1.0156-.0209.1967-.0025.3955.0542.5849.0566.1893.1504.3652.2758.5174.2518.3109.614.5108 1.0101.5576.3951.038.7894-.0827 1.0966-.3359.3074-.2532.503-.6183.544-1.0156.0343-.3966-.0839-.7911-.3299-1.1023-.124-.1543-.2771-.2822-.4507-.3761-.1737-.0939-.3642-.152-.5605-.1709z"/><path d="m70.878 19.3069c-.0713-.0101-.1362-.047-.1815-.1031l-3.1993-3.8943c-.0441-.0554-.0645-.1261-.0566-.1966.0077-.0705.043-.1351.0981-.1795.055-.0443.1252-.0649.1954-.0572.0701.0078.1341.0432.1782.0986l3.1466 3.8892c.0436.0542.0641.1234.0575.1928-.0067.0695-.0401.1335-.0932.1784-.0405.0375-.0909.0623-.1452.0717z"/><path d="m67.3171 18.9426c-.0357-.004-.0702-.0151-.1013-.0328-.0312-.0178-.0586-.0417-.0803-.0704-.0229-.0262-.0402-.0569-.0508-.0901-.0107-.0333-.0145-.0684-.0111-.1032.0033-.0348.0137-.0685.0305-.0991s.0397-.0574.0671-.0788l3.8795-3.1699c.0544-.0334.119-.046.1818-.0353.0629.0106.1198.0437.1602.0931.0406.0494.062.112.0603.1761-.0016.0641-.0262.1255-.0691.1729l-3.8794 3.1699c-.0515.0461-.1187.0704-.1874.0676z"/><path d="m64.1719 15.0429-28.0917-2.8974c-.0699-.0067-.1342-.0411-.1789-.0956-.0446-.0545-.0659-.1246-.0592-.1949.0068-.0704.0411-.1351.0953-.1801.0543-.045.124-.0665.1939-.0597l28.0916 2.8974c.0699.0067.1342.0411.1788.0956.0448.0545.0659.1246.0591.1949-.0091.0692-.0442.1324-.0977.1769-.0536.0445-.122.0669-.1912.0629z"/><path d="m63.8001 18.5721-28.0822-2.8858c-.0699-.0067-.1342-.0411-.179-.0956-.0445-.0545-.0658-.1246-.0591-.1949.0068-.0703.0411-.1351.0953-.1801.0543-.0449.1239-.0664.1939-.0597l28.0927 2.8868c.0678.0093.1293.0446.1716.0986.0425.054.0624.1224.0558.1909-.0068.0703-.0411.1351-.0952.1801-.0542.045-.124.0664-.1938.0597z"/></g><path d="m81.9725 66.299-5.9481.5538 3.096 5.1144-5.1324-3.0628-.4906 5.9692-2.36-5.5015-3.8937 4.5362 1.3185-5.8369-5.812 1.3775 4.4885-3.9472-5.509-2.3149 5.9476-.5486-3.096-5.1143 5.1329 3.0576.4901-5.9639 2.3547 5.5009 3.8995-4.5408-1.3185 5.8368 5.8115-1.3722-4.4885 3.9472z" fill="#fff"/><path d="m73.2466 77.4762c-.467-.044-.9133-.2131-1.2926-.4894-.3791-.2764-.6771-.6498-.8626-1.0814l-.7031-1.6468-1.1811 1.3548c-.3838.4303-.8984.7216-1.4643.8289-.5658.1073-1.1511.0245-1.6649-.2356-.5139-.26-.9277-.6827-1.177-1.2026-.2495-.5198-.3207-1.1076-.2027-1.6723l.3942-1.7464-1.7419.4113c-.568.1341-1.1642.0742-1.694-.1704-.5299-.2445-.9628-.6596-1.2299-1.1792-.2672-.5196-.3531-1.1138-.2443-1.6881.1089-.5743.4064-1.0956.8451-1.4812l1.3431-1.1814-1.6469-.6848c-.5387-.2257-.9864-.6253-1.2719-1.1355-.2856-.5102-.3923-1.1015-.3035-1.6798.089-.5783.3684-1.11.794-1.5107.4257-.4008.9729-.6472 1.5544-.7002l1.7811-.1655-.9035-1.5292c-.3033-.4972-.4324-1.0816-.367-1.6607s.3218-1.1199.7286-1.5368c.4067-.4169.9405-.6861 1.5169-.765s1.1625.0372 1.6657.3296l1.5356.9111.1713-1.7784c.0618-.5708.309-1.1053.7036-1.5218.3946-.4163.9147-.6914 1.4803-.7828.5658-.0914 1.1456.0058 1.6507.2766.505.271.9072.7007 1.1448 1.2231l.7081 1.6473 1.1813-1.3549c.384-.4309.8991-.7226 1.4657-.8298.5663-.1072 1.1522-.0239 1.6665.2369.5141.2608.9278.6846 1.1767 1.2054s.319 1.1094.1993 1.6744l-.3879 1.7366 1.7367-.4119c.5679-.1342 1.1643-.0741 1.6941.1705.5299.2445.9628.6596 1.2299 1.1791.267.5196.353 1.1138.2441 1.6882-.1089.5741-.4062 1.0956-.8449 1.4811l-1.3431 1.1813 1.652.6855c.5552.2168 1.0199.617 1.3171 1.1347.297.5176.4087 1.1214.3162 1.7114-.0923.59-.3831 1.1307-.8242 1.5326-.441.4019-1.0057.6408-1.6007.6773l-1.7806.16.9035 1.5294c.3043.4997.4328 1.0872.3648 1.6688-.068.5815-.3284 1.1236-.7398 1.5396s-.95.6821-1.5298.7556c-.5798.0736-1.1674-.0496-1.669-.3498l-1.5352-.9164-.1717 1.7837c-.0293.3455-.1264.6818-.2863.9893-.1596.3077-.3787.5804-.6445.8026-.2657.2221-.5728.3893-.9035.4917-.3306.1024-.6782.1381-1.0227.1049zm-1.8588-10.7063.151.0145c.2328.0341.4598.1003.6746.1965.1706-.1575.3601-.293.5642-.4036.2114-.1082.4364-.1874.6689-.2356.0473-.2335.1256-.4597.2328-.6725.1069-.2106.2406-.4065.3977-.5828-.0994-.2149-.1676-.443-.2028-.6775-.0384-.2336-.0455-.4716-.0211-.7073-.2075-.1151-.3987-.2575-.5688-.4232-.1674-.1678-.3101-.3588-.4234-.5672-.2353.0309-.4739.0274-.7083-.0102-.233-.0356-.4599-.1033-.6741-.2018-.1698.1602-.3596.2976-.5647.4088-.2115.1081-.4364.1873-.6689.2357-.0459.2316-.1223.4561-.2272.6677-.1073.2114-.2428.4073-.4028.5823.0991.2157.1691.4437.2079.678.0395.2336.0448.4716.016.7069.2089.1147.4003.259.5683.4283.1703.172.3159.3666.4329.5786.1747-.0241.3513-.0319.5275-.0229z" fill="#fff"/><path d="m81.9725 66.299-5.9481.5538 3.096 5.1144-5.1324-3.0628-.4906 5.9692-2.36-5.5015-3.8937 4.5362 1.3185-5.8369-5.812 1.3775 4.4885-3.9472-5.509-2.3149 5.9476-.5486-3.096-5.1143 5.1329 3.0576.4901-5.9639 2.3547 5.5009 3.8995-4.5408-1.3185 5.8368 5.8115-1.3722-4.4885 3.9472z" fill="#ffff58"/><path d="m73.4852 74.999c-.0237-.0009-.0466-.009-.0659-.023-.0192-.014-.0338-.0334-.0421-.0557l-2.2842-5.3048-3.7627 4.375c-.0198.022-.0464.0365-.0754.0414-.0291.0048-.059-.0003-.0847-.0146-.0256-.0129-.0458-.0341-.0576-.0602-.0119-.0259-.0145-.0552-.0075-.0829l1.2823-5.6245-5.6071 1.3234c-.0283.0077-.0585.0052-.085-.0068-.0267-.0122-.0482-.0335-.0609-.0599-.0166-.0236-.0243-.0523-.0215-.081s.0158-.0555.0365-.0754l4.3319-3.7939-5.3001-2.2473c-.0263-.0106-.0485-.0292-.0632-.0535-.0147-.0242-.0212-.0525-.0184-.0808.0027-.0282.0144-.0548.0334-.0757.0192-.0209.0445-.0351.0723-.0404l5.741-.5315-2.9767-4.9346c-.0151-.0249-.0216-.0542-.0188-.0834.0028-.0291.0148-.0565.0344-.0782.0205-.021.0472-.0344.0762-.0383.0289-.0039.0584.002.0834.0169l4.9697 2.9524.4596-5.7564c.0022-.0292.0144-.0568.0346-.0779.0203-.0211.0473-.0344.0764-.0378.0285-.0044.0576.0007.0829.0145.0253.014.0451.0358.0568.0621l2.2734 5.3089 3.7626-4.375c.0188-.0217.0442-.0367.0723-.0426.0282-.0058.0574-.0023.0831.0102.027.013.0485.035.0612.0621s.0158.0577.0086.0868l-1.2719 5.6255 5.6078-1.3288c.0282-.0066.0578-.0038.0842.0083.0266.012.0481.0326.0617.0584.015.0251.0217.0544.0189.0834-.0028.0291-.015.0566-.0345.0783l-4.3268 3.7944 5.2956 2.2416c.0268.0125.0491.0332.0636.0592.0144.026.0205.0559.017.0854-.0049.0293-.0194.0561-.0414.0759s-.05.0316-.0796.0336l-5.7358.5321 2.9871 4.9354c.0166.0235.0243.0523.0215.081s-.0158.0554-.0366.0754c-.0189.0215-.0448.0355-.0732.0395-.0283.0041-.0571-.0021-.0812-.0175l-4.9696-2.9524-.4743 5.7444c-.0028.0296-.0153.0574-.0355.0793-.02.0217-.0468.0364-.076.0417zm-2.3561-5.759c.0219.0029.0425.0115.0597.0252.0172.0138.0303.032.038.0527l2.1442 5.0121.4499-5.4362c.0015-.0229.0093-.0451.0222-.0642.0129-.0192.0305-.0344.0513-.0444.0201-.0087.0421-.0122.064-.0101.0218.0021.0427.0098.0608.0221l4.6809 2.7877-2.8244-4.6619c-.0097-.0199-.0137-.0421-.0115-.0643.0021-.0221.0102-.0431.0236-.0608.0097-.0198.0239-.0368.0417-.0497.0178-.0131.0384-.0215.06-.0247l5.4487-.4967-5.0508-2.1074c-.0213-.0083-.0401-.0221-.0541-.0402s-.0228-.0396-.0254-.0623c-.0036-.0215-.0016-.0436.0058-.064.0076-.0206.0203-.0387.0369-.0529l4.0927-3.6012-5.3008 1.2531c-.0203.0082-.0422.0114-.064.0093-.0217-.0021-.0427-.0094-.061-.0213-.0106-.0228-.0145-.0481-.0112-.073s.0138-.0482.03-.0674l1.1808-5.3342-3.5506 4.1375c-.0152.0164-.034.0291-.0547.037-.0209.0082-.0431.0113-.0654.0093-.0218-.0049-.042-.0145-.0599-.028-.0177-.0135-.0322-.0307-.0429-.0502l-2.1542-5.0186-.4296 5.4435c-.0024.022-.0104.0431-.0232.0612-.0128.018-.0299.0327-.0497.0423-.0202.0082-.0422.0114-.064.0093-.0217-.0021-.0427-.0094-.061-.0213l-4.6967-2.784 2.8236 4.667c.0082.0204.0114.0424.0093.0641-.0021.0218-.0094.0427-.0213.0612-.0096.0201-.0247.0373-.0434.0494-.0188.0122-.0406.0188-.0631.0193l-5.4231.5042 5.0494 2.1232c.0206.0077.039.0207.0529.0378.0141.0171.0234.0376.027.0594.0035.0223.0014.0452-.0062.0665-.0075.0214-.0203.0404-.037.0556l-4.0823 3.6021 5.3066-1.2577c.0219-.0041.0446-.0028.066.0037.0213.0068.0408.0186.0564.0344.0158.0151.0274.034.0336.055.0064.0208.0071.043.0022.0643l-1.2313 5.3137 3.5512-4.1429c.0242-.0263.0577-.0419.0934-.0436z" fill="#00f"/><path d="m40.3099 39.8477c-.5375-.0517-1.0783.0571-1.554.3125-.4756.2555-.8648.6462-1.1181 1.1229-.2536.4766-.36 1.0177-.306 1.5548.0542.5371.2664 1.0461.61 1.4625.3435.4166.8027.7219 1.3197.8775.5173.1556 1.0687.1545 1.5852-.0033.5164-.1579.9743-.4652 1.3159-.8832s.5516-.928.6034-1.4653c.0693-.7204-.1504-1.439-.6111-1.9976-.4605-.5585-1.1242-.9114-1.845-.9808z" fill="#fff"/><path d="m50.2629 38.8739c-.3353-.1526-.6845-.2995-1.0479-.4403.0898-.253.1746-.5033.2518-.7543 1.096-3.5379.8509-6.3952-.6371-7.4571-1.411-1.0047-4.0548-.367-6.9019 1.671-.2994.214-.6019.4434-.9045.6914-.175-.2052-.3505-.4043-.5255-.5924-2.5236-2.7296-5.126-3.9455-6.7862-3.1867-1.5809.7275-2.3438 3.329-2.0106 6.8083.0363.3678.0841.7446.1435 1.1302-.4341.0765-.8552.1637-1.2603.2617-3.3624.8222-5.4742 2.3565-5.6425 4.1044-.172 1.7864 1.8063 3.8873 5.0274 5.3419.2849.1302.583.2538.8985.3745-.1407.3929-.2684.7807-.378 1.1594-.9703 3.332-.695 5.9244.7333 6.9432.4029.2733.8708.4354 1.3565.4701 1.5432.1485 3.6412-.6117 5.794-2.1514.2544-.183.5115-.3789.7715-.5874.27.3171.5414.6204.8131.905 1.768 1.8425 3.5287 2.9026 4.9716 3.0415.4807.0564.9677-.0161 1.4111-.2098 1.6295-.7477 2.463-3.4996 2.1126-7.0273-.0299-.3034-.0717-.6141-.1204-.9333.2331-.043.4619-.0895.6832-.1398 3.6179-.8225 5.9737-2.4641 6.1486-4.2814.1549-1.7212-1.7191-3.6921-4.9018-5.1414zm-7.6969-6.1034c2.098-1.5045 3.802-2.0224 4.8576-1.9208.2776.0174.5459.1066.7787.2588.8833.6299 1.298 2.8092.232 6.2612-.0702.2284-.1487.4606-.2322.697-1.3559-.4532-2.7415-.8125-4.147-1.075-.6988-1.2458-1.4836-2.4415-2.3484-3.5784.285-.2263.5705-.4417.8593-.6428zm1.5766 12.7433c-.5712.8003-1.1448 1.5531-1.7204 2.2586-.9325-.0213-1.8881-.0775-2.8619-.1712-.9738-.0938-1.9091-.215-2.8047-.3604-.4566-.8224-.8926-1.6803-1.2927-2.5565-.4-.8762-.759-1.7577-1.0796-2.634.4837-.802 1.0062-1.6019 1.561-2.3814.5598-.7838 1.1432-1.5373 1.7399-2.2505.9329.0166 1.8904.0699 2.8441.1617s1.9068.2225 2.8244.3825c.4425.8071.8702 1.6548 1.2713 2.5357.4011.881.7765 1.7704 1.0995 2.622-.4832.7958-1.0105 1.5983-1.5809 2.3935zm2.0464-1.0813c.3518 1.0199.6434 2.0598.873 3.114-1.0767.1392-2.1607.2163-3.2463.2308.4084-.5212.8148-1.0654 1.2194-1.6326s.7891-1.138 1.1539-1.7122zm-6.9093 6.6823c-.6552-.855-1.2632-1.7451-1.8211-2.6665.6485.0915 1.3158.1707 2.0019.2379.6976.0671 1.3907.1152 2.0699.1463-.7058.8033-1.4573 1.5654-2.2507 2.2823zm-3.8924-4.124c-1.0521-.2086-2.0912-.4782-3.1121-.8073.417-.9961.8876-1.969 1.4098-2.9144.2516.6221.5032 1.2442.7938 1.8654.2907.6212.5928 1.2529.9085 1.8563zm-.325-7.9487c-.3961.5551-.7758 1.118-1.1338 1.6814-.3272-1.0084-.598-2.0339-.8116-3.0723 1.0497-.132 2.1058-.2086 3.1637-.2294-.416.5236-.8225 1.0636-1.2198 1.6202zm5.817-4.9299c.6422.8456 1.2371 1.7262 1.7817 2.6378-.6663-.1004-1.3415-.1837-2.0257-.2495-.6805-.0655-1.3565-.1135-2.0235-.1419.7134-.7905 1.4705-1.5405 2.2675-2.2464zm4.7319 5.9362c-.283-.6204-.5797-1.2267-.8844-1.815 1.0414.2242 2.0699.5053 3.0808.8416-.4083.9754-.8716 1.9268-1.388 2.8496-.2492-.6157-.5187-1.2411-.8084-1.8762zm-12.8242-4.5356c-.3286-3.3651.4538-5.2952 1.3743-5.7158.9779-.4507 3.0881.2802 5.542 2.9252.1641.1715.3265.3615.4889.5515-1.0696.9469-2.0727 1.9663-3.0023 3.0508-1.4266-.013-2.8522.0719-4.2672.2539-.0552-.3649-.1019-.7213-.1357-1.0656zm-2.3717 9.9607c-3.1621-1.4364-4.4939-3.215-4.3933-4.2594.1158-1.2033 2.0561-2.477 4.8205-3.1544.3796-.0927.7784-.1742 1.1919-.2464.2896 1.3986.6749 2.7758 1.1529 4.1218-.7329 1.2485-1.3784 2.5463-1.9315 3.884-.2943-.1139-.5741-.2327-.8401-.3502zm1.4308 8.5799c-.9896-.7057-1.1113-3.0171-.3213-5.7545.1028-.356.2255-.7241.3595-1.0973 1.3667.4406 2.7629.7831 4.1783 1.0251.712 1.2521 1.5091 2.4541 2.3856 3.5974-.2415.1948-.4819.3787-.7199.5535-2.8209 2.0235-5.0259 2.2782-5.8818 1.6711zm15.5151-4.5676c.3446 3.4585-.529 5.4951-1.482 5.9296-1.1063.5054-3.1755-.5377-5.1485-2.5961-.2561-.2676-.5134-.5555-.7699-.8526 1.0613-.9605 2.0531-1.9951 2.9677-3.0961 1.4447.0192 2.8888-.065 4.3215-.2519.0452.2908.0843.5811.1117.8624zm1.4023-2.2379c-.2054.0472-.4197.0888-.6355.1303-.3015-1.4077-.7039-2.792-1.2039-4.1423.7218-1.2164 1.3588-2.4812 1.9064-3.7853.3391.1339.6685.2715.9833.4155 3.0782 1.4018 4.3577 3.0446 4.2605 4.0536-.1049 1.0735-1.7863 2.5216-5.3103 3.3236z" fill="#fff"/></svg>